<svg width="414" height="230" viewBox="0 0 414 230" xmlns="http://www.w3.org/2000/svg" lang="en" xml:lang="en"><rect x="2" y="2" stroke-width="4" rx="6" width="410" height="226" stroke="rgba(56,139,253,0.4)" fill="#0d1117"/><g font-weight="600" font-size="110pt" font-family="Verdana,Geneva,DejaVu Sans,sans-serif" text-rendering="geometricPrecision"><g transform="translate(0, 21)" fill="#c9d1d9"><g transform="translate(15, 0)"><g transform="scale(0.095)"><text x="0" y="132" textLength="3652" lengthAdjust="spacingAndGlyphs">Language Distribution in Public Repositories</text></g></g><g transform="translate(222, 21)"><circle cx="81" cy="81" r="81" fill="#ffffff"/></g><g transform="translate(223, 22)"><path fill-rule="evenodd" fill="#4F5D95" d="M 0.0,80.00000000000001 A 80 80 0 1 1 159.18768007192807 91.37151374382337 L 80,80 Z"/><path fill-rule="evenodd" fill="#012456" d="M 159.18768007192807,91.37151374382337 A 80 80 0 0 1 81.5077826880868 159.98578993399707 L 80,80 Z"/><path fill-rule="evenodd" fill="#f1e05a" d="M 81.5077826880868,159.98578993399707 A 80 80 0 0 1 23.719237120904275 136.85486548877765 L 80,80 Z"/><path fill-rule="evenodd" fill="#e34c26" d="M 23.719237120904275,136.85486548877765 A 80 80 0 0 1 0.7831541265737059 91.1665272070516 L 80,80 Z"/><path fill-rule="evenodd" fill="#198CE7" d="M 0.7831541265737059,91.1665272070516 A 80 80 0 0 1 0.11801374708356605 84.34376245769381 L 80,80 Z"/><path fill-rule="evenodd" fill="#959da5" d="M 0.11801374708356605,84.34376245769381 A 80 80 0 0 1 0.0 80.00000000000003 L 80,80 Z"/></g><g transform="translate(15, 21)"><rect x="0.5" y="0.5" rx="2" width="15" height="15" fill="#4F5D95" stroke-width="1" stroke="#ffffff"/><text transform="scale(0.095)" x="263" y="132" textLength="1005" lengthAdjust="spacingAndGlyphs">PHP 52.27%</text></g><g transform="translate(15, 42)"><rect x="0.5" y="0.5" rx="2" width="15" height="15" fill="#012456" stroke-width="1" stroke="#ffffff"/><text transform="scale(0.095)" x="263" y="132" textLength="1592" lengthAdjust="spacingAndGlyphs">PowerShell 22.43%</text></g><g transform="translate(15, 63)"><rect x="0.5" y="0.5" rx="2" width="15" height="15" fill="#f1e05a" stroke-width="1" stroke="#ffffff"/><text transform="scale(0.095)" x="263" y="132" textLength="1516" lengthAdjust="spacingAndGlyphs">JavaScript 12.72%</text></g><g transform="translate(15, 84)"><rect x="0.5" y="0.5" rx="2" width="15" height="15" fill="#e34c26" stroke-width="1" stroke="#ffffff"/><text transform="scale(0.095)" x="263" y="132" textLength="1142" lengthAdjust="spacingAndGlyphs">HTML 10.35%</text></g><g transform="translate(15, 105)"><rect x="0.5" y="0.5" rx="2" width="15" height="15" fill="#198CE7" stroke-width="1" stroke="#ffffff"/><text transform="scale(0.095)" x="263" y="132" textLength="692" lengthAdjust="spacingAndGlyphs">R 1.36%</text></g><g transform="translate(15, 126)"><rect x="0.5" y="0.5" rx="2" width="15" height="15" fill="#959da5" stroke-width="1" stroke="#ffffff"/><text transform="scale(0.095)" x="263" y="132" textLength="1047" lengthAdjust="spacingAndGlyphs">Other 0.86%</text></g></g></g></svg>