<svg width="414" height="230" viewBox="0 0 414 230" xmlns="http://www.w3.org/2000/svg" lang="en" xml:lang="en"><rect x="2" y="2" stroke-width="4" rx="6" width="410" height="226" stroke="rgba(56,139,253,0.4)" fill="#0d1117"/><g font-weight="600" font-size="110pt" font-family="Verdana,Geneva,DejaVu Sans,sans-serif" text-rendering="geometricPrecision"><g transform="translate(0, 21)" fill="#c9d1d9"><g transform="translate(15, 0)"><g transform="scale(0.095)"><text x="0" y="132" textLength="3652" lengthAdjust="spacingAndGlyphs">Language Distribution in Public Repositories</text></g></g><g transform="translate(222, 21)"><circle cx="81" cy="81" r="81" fill="#ffffff"/></g><g transform="translate(223, 22)"><path fill-rule="evenodd" fill="#4F5D95" d="M 0.0,80.00000000000001 A 80 80 0 0 1 156.10009201929432 55.326613636248936 L 80,80 Z"/><path fill-rule="evenodd" fill="#012456" d="M 156.10009201929432,55.326613636248936 A 80 80 0 0 1 99.42075529605523 157.6069214937092 L 80,80 Z"/><path fill-rule="evenodd" fill="#f1e05a" d="M 99.42075529605523,157.6069214937092 A 80 80 0 0 1 29.431358433774932 141.99042256789878 L 80,80 Z"/><path fill-rule="evenodd" fill="#e34c26" d="M 29.431358433774932,141.99042256789878 A 80 80 0 0 1 0.6754260752908863 90.37361902439832 L 80,80 Z"/><path fill-rule="evenodd" fill="#198CE7" d="M 0.6754260752908863,90.37361902439832 A 80 80 0 0 1 0.036830266625329955 82.42723838786242 L 80,80 Z"/><path fill-rule="evenodd" fill="#959da5" d="M 0.036830266625329955,82.42723838786242 A 80 80 0 0 1 0.0 80.00000000000003 L 80,80 Z"/></g><g transform="translate(15, 21)"><rect x="0.5" y="0.5" rx="2" width="15" height="15" fill="#4F5D95" stroke-width="1" stroke="#ffffff"/><text transform="scale(0.095)" x="263" y="132" textLength="1005" lengthAdjust="spacingAndGlyphs">PHP 45.01%</text></g><g transform="translate(15, 42)"><rect x="0.5" y="0.5" rx="2" width="15" height="15" fill="#012456" stroke-width="1" stroke="#ffffff"/><text transform="scale(0.095)" x="263" y="132" textLength="1592" lengthAdjust="spacingAndGlyphs">PowerShell 26.09%</text></g><g transform="translate(15, 63)"><rect x="0.5" y="0.5" rx="2" width="15" height="15" fill="#f1e05a" stroke-width="1" stroke="#ffffff"/><text transform="scale(0.095)" x="263" y="132" textLength="1516" lengthAdjust="spacingAndGlyphs">JavaScript 14.79%</text></g><g transform="translate(15, 84)"><rect x="0.5" y="0.5" rx="2" width="15" height="15" fill="#e34c26" stroke-width="1" stroke="#ffffff"/><text transform="scale(0.095)" x="263" y="132" textLength="1142" lengthAdjust="spacingAndGlyphs">HTML 12.04%</text></g><g transform="translate(15, 105)"><rect x="0.5" y="0.5" rx="2" width="15" height="15" fill="#198CE7" stroke-width="1" stroke="#ffffff"/><text transform="scale(0.095)" x="263" y="132" textLength="692" lengthAdjust="spacingAndGlyphs">R 1.59%</text></g><g transform="translate(15, 126)"><rect x="0.5" y="0.5" rx="2" width="15" height="15" fill="#959da5" stroke-width="1" stroke="#ffffff"/><text transform="scale(0.095)" x="263" y="132" textLength="1047" lengthAdjust="spacingAndGlyphs">Other 0.48%</text></g></g></g></svg>